<svg width="24" height="23" viewBox="0 0 24 23" fill="none" xmlns="http://www.w3.org/2000/svg">
<path d="M0 11.0873C0 4.36056 5.13803 0 12 0C18.862 0 24 4.36056 24 11.0873C24 17.8479 18.862 22.2084 12 22.2084C5.13803 22.2084 0 17.8817 0 11.0873Z" fill="#F0F0F5"/>
<mask id="mask0_71_1955" style="mask-type:luminance" maskUnits="userSpaceOnUse" x="3" y="2" width="18" height="18">
<rect x="3" y="2" width="18" height="18" fill="white"/>
</mask>
<g mask="url(#mask0_71_1955)">
<path fill-rule="evenodd" clip-rule="evenodd" d="M12.9886 10.1V4.84995C12.9886 4.61126 12.8938 4.38234 12.725 4.21356C12.5562 4.04477 12.3273 3.94995 12.0886 3.94995C11.8499 3.94995 11.621 4.04477 11.4522 4.21356C11.2834 4.38234 11.1886 4.61126 11.1886 4.84995V10.1H5.93857C5.69988 10.1 5.47096 10.1948 5.30218 10.3636C5.1334 10.5323 5.03857 10.7613 5.03857 11C5.03857 11.2386 5.1334 11.4676 5.30218 11.6363C5.47096 11.8051 5.69988 11.9 5.93857 11.9H11.1886V17.15C11.1886 17.3886 11.2834 17.6176 11.4522 17.7863C11.621 17.9551 11.8499 18.0499 12.0886 18.0499C12.3273 18.0499 12.5562 17.9551 12.725 17.7863C12.8938 17.6176 12.9886 17.3886 12.9886 17.15V11.9H18.2386C18.4773 11.9 18.7062 11.8051 18.875 11.6363C19.0438 11.4676 19.1386 11.2386 19.1386 11C19.1386 10.7613 19.0438 10.5323 18.875 10.3636C18.7062 10.1948 18.4773 10.1 18.2386 10.1H12.9886Z" fill="#CDCED6"/>
</g>
</svg>
