<svg width="24" height="25" viewBox="0 0 24 25" fill="none" xmlns="http://www.w3.org/2000/svg">
<path fill-rule="evenodd" clip-rule="evenodd" d="M17.77 2.5V3.5H19.4C19.9304 3.5 20.4391 3.71071 20.8142 4.08579C21.1893 4.46086 21.4 4.96957 21.4 5.5V8.94995H2V5.5C2 4.96957 2.21071 4.46086 2.58579 4.08579C2.96086 3.71071 3.46957 3.5 4 3.5H5.63V2.5C5.63 2.23478 5.73536 1.98043 5.92289 1.79289C6.11043 1.60536 6.36478 1.5 6.63 1.5C6.89522 1.5 7.14957 1.60536 7.33711 1.79289C7.52464 1.98043 7.63 2.23478 7.63 2.5V3.5H15.77V2.5C15.77 2.23478 15.8754 1.98043 16.0629 1.79289C16.2504 1.60536 16.5048 1.5 16.77 1.5C17.0352 1.5 17.2896 1.60536 17.4771 1.79289C17.6646 1.98043 17.77 2.23478 17.77 2.5ZM2 10.45V20.9C2 21.4304 2.21071 21.9391 2.58579 22.3142C2.96086 22.6893 3.46957 22.9 4 22.9H19.4C19.9304 22.9 20.4391 22.6893 20.8142 22.3142C21.1893 21.9391 21.4 21.4304 21.4 20.9V10.45H2Z" fill="#A9ABB8"/>
</svg>
