<svg width="24" height="23" viewBox="0 0 24 23" fill="none" xmlns="http://www.w3.org/2000/svg">
<path d="M0 11.7127C0 4.98591 5.13803 0.625351 12 0.625351C18.862 0.625351 24 4.98591 24 11.7127C24 18.4732 18.862 22.8338 12 22.8338C5.13803 22.8338 0 18.507 0 11.7127Z" fill="black"/>
<path fill-rule="evenodd" clip-rule="evenodd" d="M4.75403 10.7252L4.92134 9.69743C6.96107 10.1408 10.1113 12.394 11.9876 14.1487C13.8639 12.394 17.0142 10.1408 19.0539 9.69743L19.2212 10.7252C17.3329 11.1794 14.0344 13.4262 12.2418 15.2188L12.2407 15.2178L11.9541 15.5044C11.914 15.4442 11.7903 15.2815 11.6047 15.0918C9.78664 13.3216 6.59795 11.1687 4.75403 10.7252Z" fill="#FD0000"/>
<path d="M4.92134 9.69743L5.02756 9.20884L4.51253 9.09688L4.42784 9.61709L4.92134 9.69743ZM4.75403 10.7252L4.26052 10.6449L4.18597 11.1029L4.63711 11.2114L4.75403 10.7252ZM11.9876 14.1487L11.6461 14.5139L11.9876 14.8333L12.3291 14.5139L11.9876 14.1487ZM19.0539 9.69743L19.5474 9.61709L19.4627 9.09688L18.9477 9.20884L19.0539 9.69743ZM19.2212 10.7252L19.3381 11.2114L19.7893 11.1029L19.7147 10.6449L19.2212 10.7252ZM12.2418 15.2188L11.8882 15.5724L12.2418 15.9259L12.5953 15.5724L12.2418 15.2188ZM12.2407 15.2178L12.5943 14.8642L12.2407 14.5107L11.8872 14.8642L12.2407 15.2178ZM11.9541 15.5044L11.5381 15.7818L11.8764 16.2892L12.3076 15.858L11.9541 15.5044ZM11.6047 15.0918L11.9622 14.7421L11.9535 14.7336L11.6047 15.0918ZM4.42784 9.61709L4.26052 10.6449L5.24753 10.8056L5.41485 9.77777L4.42784 9.61709ZM12.3291 13.7835C11.3702 12.8868 10.0911 11.8671 8.79009 11.0133C7.5013 10.1676 6.14062 9.45081 5.02756 9.20884L4.81513 10.186C5.74179 10.3875 6.9761 11.019 8.24144 11.8494C9.49454 12.6717 10.7287 13.656 11.6461 14.5139L12.3291 13.7835ZM18.9477 9.20884C17.8346 9.45081 16.474 10.1676 15.1852 11.0133C13.8841 11.8671 12.605 12.8868 11.6461 13.7835L12.3291 14.5139C13.2465 13.656 14.4807 12.6717 15.7338 11.8494C16.9991 11.019 18.2335 10.3875 19.1601 10.186L18.9477 9.20884ZM19.7147 10.6449L19.5474 9.61709L18.5604 9.77777L18.7277 10.8056L19.7147 10.6449ZM12.5953 15.5724C13.4625 14.7052 14.7071 13.7163 15.9698 12.8882C17.2439 12.0526 18.4812 11.4175 19.3381 11.2114L19.1043 10.2391C18.0729 10.4871 16.7169 11.2024 15.4214 12.052C14.1147 12.909 12.8137 13.9398 11.8882 14.8653L12.5953 15.5724ZM11.8872 15.5713L11.8882 15.5724L12.5953 14.8653L12.5943 14.8642L11.8872 15.5713ZM12.3076 15.858L12.5943 15.5713L11.8872 14.8642L11.6005 15.1509L12.3076 15.858ZM11.2473 15.4414C11.4145 15.6124 11.5177 15.7512 11.5381 15.7818L12.3701 15.2271C12.3103 15.1373 12.1661 14.9507 11.9621 14.7422L11.2473 15.4414ZM4.63711 11.2114C5.4732 11.4124 6.67278 12.0225 7.91675 12.8303C9.14938 13.6308 10.3743 14.5917 11.2559 15.45L11.9535 14.7336C11.017 13.8217 9.73858 12.8211 8.46138 11.9917C7.19551 11.1696 5.87878 10.4815 4.87095 10.2391L4.63711 11.2114Z" fill="#FD0000"/>
</svg>
