<svg viewBox="0 0 20 24" fill="currentColor" xmlns="http://www.w3.org/2000/svg">
<path fill-rule="evenodd" clip-rule="evenodd" d="M10.989 0.640013C10.8326 0.549872 10.6553 0.502428 10.4749 0.502441C10.2944 0.502455 10.1171 0.549924 9.96083 0.640088C9.80451 0.730252 9.67465 0.85994 9.58428 1.01614C9.49391 1.17234 9.44621 1.34956 9.44596 1.53001V2.97001C9.44617 3.8724 9.20877 4.75893 8.75762 5.54045C8.30648 6.32196 7.6575 6.97091 6.87596 7.42201L0.922961 10.86C0.766579 10.9502 0.636707 11.08 0.546408 11.2363C0.45611 11.3926 0.408569 11.57 0.408569 11.7505C0.408569 11.931 0.45611 12.1084 0.546408 12.2647C0.636707 12.421 0.766579 12.5508 0.922961 12.641L6.31796 15.755C6.27096 15.81 6.21396 15.851 6.17796 15.915L2.72196 21.9C2.56969 22.1752 2.53152 22.4991 2.61564 22.8021C2.69977 23.1051 2.89948 23.363 3.17181 23.5202C3.44413 23.6775 3.7673 23.7216 4.07179 23.643C4.37628 23.5644 4.63776 23.3694 4.79996 23.1L8.25596 17.116C8.29296 17.051 8.29996 16.981 8.32296 16.914L13.719 20.028C13.8752 20.1182 14.0525 20.1657 14.2329 20.1657C14.4133 20.1658 14.5906 20.1183 14.7468 20.0281C14.9031 19.9379 15.0329 19.8082 15.1231 19.6519C15.2134 19.4957 15.2609 19.3184 15.261 19.138V12.264C15.261 10.427 16.24 8.73001 17.831 7.81201L19.079 7.09201C19.2356 7.00189 19.3657 6.87207 19.4561 6.71564C19.5466 6.55922 19.5942 6.38171 19.5942 6.20101C19.5942 6.02032 19.5466 5.84281 19.4561 5.68638C19.3657 5.52996 19.2356 5.40014 19.079 5.31001L10.989 0.640013Z" fill="inherit"/>
</svg>
