<svg viewBox="0 0 24 25" fill="currentColor" xmlns="http://www.w3.org/2000/svg">
<path fill-rule="evenodd" clip-rule="evenodd" d="M14.5 2.5L20.5 8.5L15.5 8.5C15.2348 8.5 14.9804 8.39464 14.7929 8.20711C14.6054 8.01957 14.5 7.76522 14.5 7.5L14.5 2.5Z" fill="inherit"/>
<path fill-rule="evenodd" clip-rule="evenodd" d="M4.5 22.5C4.23478 22.5 3.98043 22.3946 3.79289 22.2071C3.60536 22.0196 3.5 21.7652 3.5 21.5V3.5C3.5 3.23478 3.60536 2.98043 3.79289 2.79289C3.98043 2.60536 4.23479 2.5 4.5 2.5H13L13 7.5C13 8.878 14.122 10 15.5 10L20.5 10L20.5 21.5C20.5 21.7652 20.3946 22.0196 20.2071 22.2071C20.0196 22.3946 19.7652 22.5 19.5 22.5L4.5 22.5ZM6.25 18.5C6.25 18.0858 6.58579 17.75 7 17.75H17C17.4142 17.75 17.75 18.0858 17.75 18.5C17.75 18.9142 17.4142 19.25 17 19.25H7C6.58579 19.25 6.25 18.9142 6.25 18.5ZM7 13.75C6.58579 13.75 6.25 14.0858 6.25 14.5C6.25 14.9142 6.58579 15.25 7 15.25H14C14.4142 15.25 14.75 14.9142 14.75 14.5C14.75 14.0858 14.4142 13.75 14 13.75H7Z" fill="inherit"/>
</svg>
