<svg width="24" height="24" viewBox="0 0 24 24" fill="none" xmlns="http://www.w3.org/2000/svg">
<mask id="mask0_38_640" style="mask-type:luminance" maskUnits="userSpaceOnUse" x="0" y="0" width="24" height="24">
<rect width="24" height="24" fill="white"/>
</mask>
<g mask="url(#mask0_38_640)">
<path fill-rule="evenodd" clip-rule="evenodd" d="M12.989 0.640013C12.8327 0.549872 12.6554 0.502428 12.4749 0.502441C12.2945 0.502455 12.1172 0.549924 11.9609 0.640088C11.8045 0.730252 11.6747 0.85994 11.5843 1.01614C11.4939 1.17234 11.4462 1.34956 11.446 1.53001V2.97001C11.4462 3.8724 11.2088 4.75893 10.7577 5.54045C10.3065 6.32196 9.65753 6.97091 8.87599 7.42201L2.92299 10.86C2.76661 10.9502 2.63674 11.08 2.54644 11.2363C2.45614 11.3926 2.4086 11.57 2.4086 11.7505C2.4086 11.931 2.45614 12.1084 2.54644 12.2647C2.63674 12.421 2.76661 12.5508 2.92299 12.641L8.31799 15.755C8.27099 15.81 8.21399 15.851 8.17799 15.915L4.72199 21.9C4.56972 22.1752 4.53155 22.4991 4.61567 22.8021C4.6998 23.1051 4.89951 23.363 5.17184 23.5202C5.44416 23.6775 5.76733 23.7216 6.07182 23.643C6.37632 23.5644 6.63779 23.3694 6.79999 23.1L10.256 17.116C10.293 17.051 10.3 16.981 10.323 16.914L15.719 20.028C15.8752 20.1182 16.0525 20.1657 16.2329 20.1657C16.4134 20.1658 16.5906 20.1183 16.7469 20.0281C16.9031 19.9379 17.0329 19.8082 17.1232 19.6519C17.2134 19.4957 17.2609 19.3184 17.261 19.138V12.264C17.261 10.427 18.24 8.73001 19.831 7.81201L21.079 7.09201C21.2356 7.00189 21.3657 6.87207 21.4562 6.71564C21.5466 6.55922 21.5942 6.38171 21.5942 6.20101C21.5942 6.02032 21.5466 5.84281 21.4562 5.68638C21.3657 5.52996 21.2356 5.40014 21.079 5.31001L12.989 0.640013Z" fill="#8B95A1"/>
</g>
</svg>
