<svg width="18" height="18" viewBox="0 0 18 18" fill="currentColor" xmlns="http://www.w3.org/2000/svg">
<g id="icon-plus-mono">
<mask id="mask0_294_1245" style="mask-type:luminance" maskUnits="userSpaceOnUse" x="0" y="0" width="18" height="18">
<rect id="icon-plus-mono (Background/Mask)" width="18" height="18" fill="inherit"/>
</mask>
<g mask="url(#mask0_294_1245)">
<path id="Vector" fill-rule="evenodd" clip-rule="evenodd" d="M9.98854 8.10001V2.85001C9.98854 2.61132 9.89372 2.3824 9.72494 2.21362C9.55616 2.04483 9.32724 1.95001 9.08854 1.95001C8.84985 1.95001 8.62093 2.04483 8.45215 2.21362C8.28336 2.3824 8.18854 2.61132 8.18854 2.85001V8.10001H2.93854C2.69985 8.10001 2.47093 8.19483 2.30215 8.36362C2.13336 8.5324 2.03854 8.76132 2.03854 9.00001C2.03854 9.23871 2.13336 9.46762 2.30215 9.63641C2.47093 9.80519 2.69985 9.90001 2.93854 9.90001H8.18854V15.15C8.18854 15.3887 8.28336 15.6176 8.45215 15.7864C8.62093 15.9552 8.84985 16.05 9.08854 16.05C9.32724 16.05 9.55616 15.9552 9.72494 15.7864C9.89372 15.6176 9.98854 15.3887 9.98854 15.15V9.90001H15.2385C15.4772 9.90001 15.7062 9.80519 15.8749 9.63641C16.0437 9.46762 16.1385 9.23871 16.1385 9.00001C16.1385 8.76132 16.0437 8.5324 15.8749 8.36362C15.7062 8.19483 15.4772 8.10001 15.2385 8.10001H9.98854Z" fill="inherit"/>
</g>
</g>
</svg>
