<svg width="17" height="20" viewBox="0 0 17 20" fill="none" xmlns="http://www.w3.org/2000/svg">
<g id="Group">
<path id="Subtract" fill-rule="evenodd" clip-rule="evenodd" d="M0.292893 0.292893C0.48043 0.105357 0.734784 0 1 0H16C16.2652 0 16.5196 0.105357 16.7071 0.292893C16.8946 0.48043 17 0.734784 17 1V12.5H12C10.622 12.5 9.5 13.622 9.5 15V20H1C0.734784 20 0.48043 19.8946 0.292893 19.7071C0.105357 19.5196 0 19.2652 0 19V1C0 0.734784 0.105357 0.48043 0.292893 0.292893ZM7.16186 11.5826C7.36688 11.5826 7.56351 11.5039 7.7085 11.3637L12.026 7.18878C12.0978 7.11937 12.1548 7.03696 12.1936 6.94626C12.2325 6.85556 12.2525 6.75836 12.2525 6.66019C12.2525 6.56202 12.2325 6.46481 12.1936 6.37411C12.1548 6.28341 12.0978 6.201 12.026 6.13159C11.9542 6.06217 11.869 6.00711 11.7752 5.96954C11.6814 5.93197 11.5809 5.91264 11.4794 5.91264C11.3779 5.91264 11.2773 5.93197 11.1835 5.96954C11.0897 6.00711 11.0045 6.06217 10.9327 6.13159L7.16186 9.77719L5.06727 7.75178C4.99548 7.68236 4.91026 7.62729 4.81646 7.58973C4.72267 7.55216 4.62214 7.53282 4.52062 7.53282C4.4191 7.53282 4.31857 7.55216 4.22477 7.58973C4.13098 7.62729 4.04576 7.68236 3.97397 7.75178C3.90218 7.82119 3.84524 7.9036 3.80639 7.9943C3.76754 8.085 3.74754 8.1822 3.74754 8.28037C3.74754 8.37854 3.76754 8.47575 3.80639 8.56645C3.84524 8.65715 3.90218 8.73955 3.97397 8.80897L6.61521 11.3637C6.7602 11.5039 6.95683 11.5826 7.16186 11.5826Z" fill="#A9ABB8"/>
<path id="Vector" fill-rule="evenodd" clip-rule="evenodd" d="M11 20L17 14H12C11.7348 14 11.4804 14.1054 11.2929 14.2929C11.1054 14.4804 11 14.7348 11 15V20Z" fill="#A9ABB8"/>
</g>
</svg>
