<svg width="24" height="24" viewBox="0 0 24 24" fill="none" xmlns="http://www.w3.org/2000/svg">
<path d="M0 11.9831C0 5.25634 5.13803 0.895782 12 0.895782C18.862 0.895782 24 5.25634 24 11.9831C24 18.7437 18.862 23.1042 12 23.1042C5.13803 23.1042 0 18.7775 0 11.9831Z" fill="#525463"/>
<mask id="mask0_50_446" style="mask-type:luminance" maskUnits="userSpaceOnUse" x="3" y="2" width="18" height="19">
<rect x="3" y="2.89578" width="18" height="18" fill="white"/>
</mask>
<g mask="url(#mask0_50_446)">
<path fill-rule="evenodd" clip-rule="evenodd" d="M13.3614 11.8958L17.0737 8.18348C17.2425 8.01469 17.3373 7.78578 17.3373 7.54708C17.3373 7.30839 17.2425 7.07947 17.0737 6.91069C16.9049 6.7419 16.676 6.64708 16.4373 6.64708C16.1986 6.64708 15.9697 6.7419 15.8009 6.91069L12.0886 10.623L8.37631 6.91069C8.20753 6.7419 7.97861 6.64708 7.73992 6.64708C7.50122 6.64708 7.2723 6.7419 7.10352 6.91069C6.93474 7.07947 6.83992 7.30839 6.83992 7.54708C6.83992 7.78578 6.93474 8.01469 7.10352 8.18348L10.8158 11.8958L7.10352 15.6081C6.93474 15.7769 6.83992 16.0058 6.83992 16.2445C6.83992 16.4832 6.93474 16.7121 7.10352 16.8809C7.2723 17.0497 7.50122 17.1445 7.73992 17.1445C7.97861 17.1445 8.20753 17.0497 8.37631 16.8809L12.0886 13.1686L15.8009 16.8809C15.9697 17.0497 16.1986 17.1445 16.4373 17.1445C16.676 17.1445 16.9049 17.0497 17.0737 16.8809C17.2425 16.7121 17.3373 16.4832 17.3373 16.2445C17.3373 16.0058 17.2425 15.7769 17.0737 15.6081L13.3614 11.8958Z" fill="#CDCED6"/>
</g>
</svg>
