<svg width="12" height="13" viewBox="0 0 12 13" fill="none" xmlns="http://www.w3.org/2000/svg">
<mask id="mask0_204_5115" style="mask-type:luminance" maskUnits="userSpaceOnUse" x="0" y="0" width="12" height="13">
<rect y="0.208435" width="12" height="12" fill="white"/>
</mask>
<g mask="url(#mask0_204_5115)">
<path fill-rule="evenodd" clip-rule="evenodd" d="M9.73315 3.38293C9.78889 3.32722 9.83312 3.26107 9.8633 3.18827C9.89349 3.11546 9.90903 3.03742 9.90906 2.95861C9.90908 2.8798 9.89358 2.80175 9.86344 2.72893C9.8333 2.6561 9.78911 2.58993 9.7334 2.53418C9.67769 2.47844 9.61154 2.43421 9.53873 2.40403C9.46593 2.37385 9.38789 2.3583 9.30908 2.35828C9.23026 2.35825 9.15222 2.37375 9.07939 2.40389C9.00657 2.43403 8.94039 2.47822 8.88465 2.53393L6.05915 5.35993L3.23315 2.53393C3.11933 2.42762 2.96865 2.36969 2.81293 2.37237C2.6572 2.37505 2.50861 2.43813 2.39851 2.54829C2.28841 2.65845 2.22542 2.80708 2.22284 2.96281C2.22025 3.11853 2.27827 3.26917 2.38465 3.38293L5.21065 6.20843L2.38465 9.03393C2.30113 9.11803 2.24434 9.22495 2.22142 9.34124C2.19851 9.45753 2.21049 9.578 2.25586 9.68749C2.30123 9.79699 2.37796 9.89063 2.47641 9.95663C2.57486 10.0226 2.69062 10.0581 2.80915 10.0584C2.96265 10.0584 3.11615 9.99993 3.23315 9.88293L6.05915 7.05693L8.88465 9.88293C8.9403 9.93876 9.00642 9.98306 9.07922 10.0133C9.15202 10.0435 9.23007 10.0591 9.3089 10.0591C9.38773 10.0591 9.46578 10.0435 9.53858 10.0133C9.61138 9.98306 9.6775 9.93876 9.73315 9.88293C9.78893 9.82721 9.83319 9.76104 9.86338 9.6882C9.89358 9.61536 9.90912 9.53728 9.90912 9.45843C9.90912 9.37958 9.89358 9.30151 9.86338 9.22867C9.83319 9.15583 9.78893 9.08966 9.73315 9.03393L6.90765 6.20843L9.73315 3.38293Z" fill="#858899"/>
</g>
</svg>
