<svg width="251" height="51" viewBox="0 0 251 51" fill="none" xmlns="http://www.w3.org/2000/svg">
<g id="Group 1">
<g id="kirook">
<path id="Vector" d="M224.845 48.931H203.571V0H224.845V18.5212L221.404 27.1561L223.093 27.5941L229.851 10.6997H251L241.677 29.7841L251 48.931H229.1L224.845 39.9833V48.931Z" fill="black"/>
<path id="Vector_2" d="M155.939 29.9717C155.939 17.52 165.45 9.44824 178.152 9.44824C190.854 9.44824 200.365 17.52 200.365 29.9717C200.365 42.486 190.854 50.5578 178.152 50.5578C165.45 50.5578 155.939 42.5486 155.939 29.9717Z" fill="black"/>
<path id="Vector_3" d="M112.647 29.9717C112.647 17.52 122.158 9.44824 134.86 9.44824C147.562 9.44824 157.073 17.52 157.073 29.9717C157.073 42.486 147.562 50.5578 134.86 50.5578C122.158 50.5578 112.647 42.5486 112.647 29.9717Z" fill="black"/>
<path id="Vector_4" d="M93.9713 10.6999L96.1613 13.2653C100.228 10.5122 106.611 9.26073 111.366 10.0742V26.0299C106.861 26.0299 100.729 26.2802 96.0987 28.4076V48.9311H76.0758V10.6999H93.9713Z" fill="black"/>
<path id="Vector_5" d="M71.5638 10.6997V48.931H50.2895V0H71.5638V8.88517C68.4978 10.7623 59.9881 12.1389 55.2952 12.1389V13.8909C59.9881 13.8909 68.185 12.8272 71.5638 10.6997Z" fill="black"/>
<path id="Vector_6" d="M21.2743 48.931H0V0H21.2743V18.5212L17.8329 27.1561L19.5223 27.5941L26.2801 10.6997H47.4293L38.1061 29.7841L47.4293 48.931H25.5292L21.2743 39.9833V48.931Z" fill="black"/>
</g>
<path id="Union" fill-rule="evenodd" clip-rule="evenodd" d="M143.392 26.6562L143.082 28.5588C146.577 29.3994 152.683 33.5584 156.002 36.8768L156.472 36.4063L156.943 36.8768C160.261 33.5584 166.367 29.3994 169.862 28.5588L169.552 26.6562C165.777 27.4771 159.945 31.6478 156.472 34.896C152.999 31.6478 147.167 27.4771 143.392 26.6562Z" fill="#00BF41"/>
</g>
</svg>
