<svg width="65" height="17" viewBox="0 0 65 17" fill="none" xmlns="http://www.w3.org/2000/svg">
<title id="todo-logo">Todo Logo</title>
<path d="M0.525547 0.259999H14.8455V5.36H11.0855V15.9H4.28555V5.36H0.525547V0.259999ZM14.2941 9.84C14.2941 5.86 17.3341 3.28 21.3941 3.28C25.4541 3.28 28.4941 5.86 28.4941 9.84C28.4941 13.84 25.4541 16.42 21.3941 16.42C17.3341 16.42 14.2941 13.86 14.2941 9.84ZM24.1541 9.42L23.7941 8.92C22.8141 9.52 20.4941 9.96 18.9941 9.96V10.52C20.4941 10.52 23.0341 10.14 24.1541 9.42ZM40.9745 15.88H35.5345V0.259999H40.8345C46.6545 0.259999 49.6345 2.14 49.6345 8.2C49.6345 14.36 46.8345 15.88 40.9745 15.88ZM39.3345 7.08L38.9745 7.62C40.8945 8.24 43.5345 8.52 45.6345 8.52V7.92C43.5345 7.92 41.1145 7.58 39.3345 7.08ZM50.3098 9.84C50.3098 5.86 53.3498 3.28 57.4098 3.28C61.4698 3.28 64.5098 5.86 64.5098 9.84C64.5098 13.84 61.4698 16.42 57.4098 16.42C53.3498 16.42 50.3098 13.86 50.3098 9.84ZM60.1698 9.42L59.8098 8.92C58.8298 9.52 56.5098 9.96 55.0098 9.96V10.52C56.5098 10.52 59.0498 10.14 60.1698 9.42Z" fill="black"/>
</svg>
